<svg width="790" height="790" viewBox="0 0 790 790" fill="none" xmlns="http://www.w3.org/2000/svg">
<circle cx="395" cy="395" r="395" fill="white"/>
<path d="M117.604 462.7C117.604 465.7 119.204 467.4 122.404 467.8L149.404 471.4V487H54.0043V471.4L71.4043 468.1C74.6043 467.5 76.2043 465.7 76.2043 462.7V340.3C76.2043 337.5 74.7043 335.8 71.7043 335.2L54.0043 331.6V315.1H97.5043C100.704 315.1 104.104 315 107.704 314.8C111.504 314.6 115.604 314.4 120.004 314.2C124.404 314 129.404 313.9 135.004 313.9C151.604 313.9 164.504 315.9 173.704 319.9C183.104 323.7 189.704 329.3 193.504 336.7C197.304 344.1 199.204 353.2 199.204 364C199.204 376.8 196.604 387.9 191.404 397.3C186.404 406.5 178.904 413.6 168.904 418.6C159.104 423.4 146.804 425.8 132.004 425.8C128.604 425.8 125.204 425.7 121.804 425.5C118.604 425.3 115.504 425.1 112.504 424.9L112.204 408.4C115.804 408.8 118.804 409.2 121.204 409.6C123.804 409.8 127.004 409.9 130.804 409.9C136.004 409.9 140.504 408.6 144.304 406C148.304 403.2 151.404 398.6 153.604 392.2C156.004 385.6 157.204 376.6 157.204 365.2C157.204 352.8 154.904 343.8 150.304 338.2C145.904 332.4 139.304 329.5 130.504 329.5C126.704 329.5 124.004 329.7 122.404 330.1C120.804 330.3 119.204 330.5 117.604 330.7V462.7ZM260.465 463C260.465 466.6 262.165 468.7 265.565 469.3L277.265 471.4V487H204.065V471.4L215.765 469.3C219.165 468.7 220.865 466.6 220.865 463V388.9C220.865 385.3 219.265 383.2 216.065 382.6L202.865 379.9V363.7C210.665 361.5 219.365 359.9 228.965 358.9C238.565 357.9 247.265 357.4 255.065 357.4L260.465 362.2V463ZM260.165 322.9C260.165 328.9 258.165 333.7 254.165 337.3C250.365 340.9 245.265 342.7 238.865 342.7C232.265 342.7 226.965 340.9 222.965 337.3C219.165 333.7 217.265 328.9 217.265 322.9C217.265 316.9 219.165 312.2 222.965 308.8C226.965 305.2 232.265 303.4 238.865 303.4C245.265 303.4 250.365 305.2 254.165 308.8C258.165 312.2 260.165 316.9 260.165 322.9ZM282.37 425.5C282.37 410.5 285.07 398 290.47 388C296.07 377.8 303.67 370.1 313.27 364.9C322.87 359.7 333.77 357.1 345.97 357.1C353.77 357.1 361.47 358 369.07 359.8C376.67 361.6 382.97 363.9 387.97 366.7C388.57 374.1 388.57 381.4 387.97 388.6C387.57 395.8 386.77 402.8 385.57 409.6H366.37L360.07 387.7C359.27 385.1 358.57 383.1 357.97 381.7C357.37 380.3 356.57 379.2 355.57 378.4C354.37 377.4 352.87 376.5 351.07 375.7C349.27 374.9 347.27 374.5 345.07 374.5C339.47 374.5 334.67 378 330.67 385C326.67 391.8 324.67 403.5 324.67 420.1C324.67 435.3 326.87 446.8 331.27 454.6C335.67 462.2 343.07 466 353.47 466C359.87 466 365.47 464.9 370.27 462.7C375.07 460.3 378.77 458 381.37 455.8L389.77 462.4C387.17 470.4 381.57 477 372.97 482.2C364.57 487.4 353.77 490 340.57 490C327.17 490 316.17 487.2 307.57 481.6C298.97 475.8 292.57 468 288.37 458.2C284.37 448.4 282.37 437.5 282.37 425.5ZM478.889 487V471.4L486.389 469.3C487.989 468.9 489.189 468.2 489.989 467.2C490.789 466.2 491.189 464.8 491.189 463V408.7C491.189 398.3 489.689 391 486.689 386.8C483.689 382.6 478.989 380.5 472.589 380.5C468.389 380.5 463.989 381.4 459.389 383.2C454.989 384.8 450.789 387.3 446.789 390.7L447.089 379.6C452.489 372 458.989 366.4 466.589 362.8C474.189 359 482.789 357.1 492.389 357.1C507.189 357.1 517.189 361.2 522.389 369.4C527.789 377.6 530.489 389.3 530.489 404.5V463C530.489 466.6 532.189 468.7 535.589 469.3L547.589 471.4V487H478.889ZM397.589 487V471.4L409.589 469.3C412.789 468.7 414.389 466.6 414.389 463V388.9C414.389 385.3 412.789 383.2 409.589 382.6L396.389 379.9V363.7C403.989 361.7 411.989 360.2 420.389 359.2C428.789 358.2 436.689 357.6 444.089 357.4L449.789 362.2L453.989 384.7V463C453.989 466.2 455.589 468.3 458.789 469.3L465.989 471.4V487H397.589ZM608.172 463C608.172 466.6 609.872 468.7 613.272 469.3L624.972 471.4V487H551.772V471.4L563.472 469.3C566.872 468.7 568.572 466.6 568.572 463V388.9C568.572 385.3 566.972 383.2 563.772 382.6L550.572 379.9V363.7C558.372 361.5 567.072 359.9 576.672 358.9C586.272 357.9 594.972 357.4 602.772 357.4L608.172 362.2V463ZM607.872 322.9C607.872 328.9 605.872 333.7 601.872 337.3C598.072 340.9 592.972 342.7 586.572 342.7C579.972 342.7 574.672 340.9 570.672 337.3C566.872 333.7 564.972 328.9 564.972 322.9C564.972 316.9 566.872 312.2 570.672 308.8C574.672 305.2 579.972 303.4 586.572 303.4C592.972 303.4 598.072 305.2 601.872 308.8C605.872 312.2 607.872 316.9 607.872 322.9ZM630.077 425.5C630.077 410.5 632.777 398 638.177 388C643.777 377.8 651.377 370.1 660.977 364.9C670.577 359.7 681.477 357.1 693.677 357.1C701.477 357.1 709.177 358 716.777 359.8C724.377 361.6 730.677 363.9 735.677 366.7C736.277 374.1 736.277 381.4 735.677 388.6C735.277 395.8 734.477 402.8 733.277 409.6H714.077L707.777 387.7C706.977 385.1 706.277 383.1 705.677 381.7C705.077 380.3 704.277 379.2 703.277 378.4C702.077 377.4 700.577 376.5 698.777 375.7C696.977 374.9 694.977 374.5 692.777 374.5C687.177 374.5 682.377 378 678.377 385C674.377 391.8 672.377 403.5 672.377 420.1C672.377 435.3 674.577 446.8 678.977 454.6C683.377 462.2 690.777 466 701.177 466C707.577 466 713.177 464.9 717.977 462.7C722.777 460.3 726.477 458 729.077 455.8L737.477 462.4C734.877 470.4 729.277 477 720.677 482.2C712.277 487.4 701.477 490 688.277 490C674.877 490 663.877 487.2 655.277 481.6C646.677 475.8 640.277 468 636.077 458.2C632.077 448.4 630.077 437.5 630.077 425.5Z" fill="#B5927D"/>
<ellipse cx="587" cy="321" rx="28" ry="24" fill="white"/>
<path d="M325.056 345V339.96L335.376 338.4C336.896 338.16 337.656 337.32 337.656 335.88V282.12H332.976C331.296 282.12 329.736 282.2 328.296 282.36C326.856 282.44 325.776 282.64 325.056 282.96C323.776 283.44 323.016 284.32 322.776 285.6L319.536 298.68H313.416C313.096 294.76 312.936 291.04 312.936 287.52C312.936 284 313.136 280.36 313.536 276.6H373.656C374.056 280.36 374.256 284 374.256 287.52C374.256 291.04 374.056 294.76 373.656 298.68H367.536L364.296 285.48C364.216 284.76 363.976 284.24 363.576 283.92C363.256 283.52 362.816 283.2 362.256 282.96C360.416 282.4 357.776 282.12 354.336 282.12H349.656V335.88C349.656 337.32 350.416 338.16 351.936 338.4L362.136 339.96V345H325.056ZM379.264 345V339.96L384.424 339.12C385.944 338.88 386.704 338 386.704 336.48V277.08C386.704 275.56 385.944 274.72 384.424 274.56L378.304 273.6V268.92C381.024 268.12 384.064 267.52 387.424 267.12C390.784 266.72 393.824 266.52 396.544 266.52L398.224 268.2V336.48C398.224 337.84 398.944 338.72 400.384 339.12L404.584 339.96V345H379.264ZM411.904 345V339.96L415.984 339.12C416.624 338.96 417.144 338.68 417.544 338.28C418.024 337.88 418.264 337.28 418.264 336.48V314.4C418.264 309.84 417.624 306.48 416.344 304.32C415.064 302.16 412.704 301.08 409.264 301.08C406.864 301.08 404.464 301.56 402.064 302.52C399.664 303.48 397.464 304.92 395.464 306.84L395.704 302.88C398.184 299.52 401.024 297.16 404.224 295.8C407.504 294.36 410.984 293.64 414.664 293.64C420.504 293.64 424.464 295.32 426.544 298.68C428.624 301.96 429.664 306.64 429.664 312.72V336.48C429.664 338 430.424 338.88 431.944 339.12L437.104 339.96V345H411.904ZM443.874 320.52C443.874 311.96 445.994 305.36 450.234 300.72C454.474 296 460.274 293.64 467.634 293.64C473.634 293.64 478.274 295.16 481.554 298.2C484.834 301.24 486.474 305.52 486.474 311.04C486.474 311.92 486.394 312.96 486.234 314.16C486.154 315.36 486.034 316.48 485.874 317.52H452.034V312.6H475.314C475.394 312.2 475.434 311.84 475.434 311.52C475.514 311.2 475.554 310.8 475.554 310.32C475.554 306.96 474.754 304.24 473.154 302.16C471.634 300.08 469.394 299.04 466.434 299.04C463.154 299.04 460.554 300.52 458.634 303.48C456.794 306.36 455.874 311.24 455.874 318.12C455.874 323.16 456.394 327.2 457.434 330.24C458.554 333.2 460.154 335.36 462.234 336.72C464.314 338 466.794 338.64 469.674 338.64C472.394 338.64 474.914 338.08 477.234 336.96C479.634 335.84 481.554 334.28 482.994 332.28L486.114 334.32C485.074 338 482.794 340.92 479.274 343.08C475.754 345.16 471.434 346.2 466.314 346.2C461.274 346.2 457.074 345.12 453.714 342.96C450.434 340.8 447.954 337.8 446.274 333.96C444.674 330.12 443.874 325.64 443.874 320.52ZM509.147 276.6C512.027 276.6 514.707 276.48 517.187 276.24C519.747 276 522.347 275.88 524.987 275.88C536.187 275.88 544.467 278.64 549.827 284.16C555.187 289.6 557.867 297.76 557.867 308.64C557.867 320.88 554.827 330.16 548.747 336.48C542.667 342.8 534.307 345.84 523.667 345.6C522.387 345.6 520.907 345.56 519.227 345.48C517.547 345.4 515.827 345.28 514.067 345.12C512.307 345.04 510.707 345 509.267 345H494.147V339.96L501.227 338.64C502.587 338.4 503.267 337.6 503.267 336.24V285.48C503.267 284.28 502.667 283.52 501.467 283.2L494.147 281.76V276.6H509.147ZM515.267 339.24C516.307 339.56 517.747 339.8 519.587 339.96C521.427 340.12 523.027 340.16 524.387 340.08C528.707 339.92 532.387 338.88 535.427 336.96C538.547 334.96 540.907 331.84 542.507 327.6C544.107 323.28 544.907 317.64 544.907 310.68C544.907 300.84 543.147 293.48 539.627 288.6C536.107 283.72 530.587 281.28 523.067 281.28C521.387 281.28 519.827 281.4 518.387 281.64C517.027 281.8 515.987 281.92 515.267 282V339.24ZM580.832 345.96C576.672 345.96 573.232 344.88 570.512 342.72C567.872 340.56 566.552 337.52 566.552 333.6C566.552 330.32 567.512 327.68 569.432 325.68C571.352 323.6 573.792 322.08 576.752 321.12C579.712 320.16 582.752 319.56 585.872 319.32L597.512 318.48V323.52L588.272 324.24C584.992 324.48 582.552 325.28 580.952 326.64C579.352 328 578.552 329.96 578.552 332.52C578.552 334.6 579.112 336.2 580.232 337.32C581.352 338.44 583.032 339 585.272 339C587.672 339 589.992 338.48 592.232 337.44C594.472 336.4 596.232 335.08 597.512 333.48L598.592 336.12C596.992 339.08 594.592 341.48 591.392 343.32C588.272 345.08 584.752 345.96 580.832 345.96ZM567.992 304.68C569.272 301.24 571.712 298.56 575.312 296.64C578.992 294.72 583.352 293.76 588.392 293.76C594.632 293.76 599.232 295.28 602.192 298.32C605.152 301.36 606.632 305.92 606.632 312V336.12C606.632 337.88 607.472 338.84 609.152 339L613.952 339.48V344.16C612.992 344.4 611.632 344.72 609.872 345.12C608.112 345.52 606.432 345.72 604.832 345.72C602.272 345.72 600.192 345.08 598.592 343.8C596.992 342.44 595.952 340.28 595.472 337.32V312.96C595.472 308.8 594.592 305.92 592.832 304.32C591.152 302.64 588.552 301.8 585.032 301.8C582.392 301.8 579.832 302.24 577.352 303.12C574.952 304 572.752 305.4 570.752 307.32L567.992 304.68ZM616.552 360.48C620.552 360.08 624.032 359.48 626.992 358.68C629.952 357.96 632.512 356.84 634.672 355.32C636.912 353.88 638.832 351.76 640.432 348.96C642.112 346.24 643.632 342.72 644.992 338.4L656.632 301.08L649.912 299.76V294.84H669.112V299.76L665.632 300.84C664.992 301 664.432 301.28 663.952 301.68C663.552 302 663.232 302.48 662.992 303.12L648.232 346.56C645.832 353.76 643.032 359.04 639.832 362.4C636.632 365.84 632.472 367.56 627.352 367.56C625.592 367.56 623.792 367.44 621.952 367.2C620.112 367.04 618.312 366.84 616.552 366.6V360.48ZM645.472 345H637.432L621.712 303.12C621.232 301.92 620.352 301.16 619.072 300.84L615.472 299.76V294.84H641.032V299.76L633.832 301.2L647.632 340.8L645.472 345Z" fill="#B5927D"/>
</svg>
