<svg width="437" height="437" viewBox="0 0 437 437" fill="none" xmlns="http://www.w3.org/2000/svg">
<circle cx="218.5" cy="218.5" r="218.5" fill="#189D0E"/>
<path fill-rule="evenodd" clip-rule="evenodd" d="M317.496 118.691C291.363 92.4651 256.609 78.0148 219.58 78C143.285 78 81.1912 140.238 81.1606 216.738C81.1506 241.191 87.5243 265.062 99.6374 286.101L80 358L153.378 338.707C173.596 349.759 196.358 355.585 219.525 355.595H219.582C295.869 355.595 357.969 293.349 358 216.848C358.014 179.775 343.63 144.915 317.496 118.69V118.69V118.691ZM219.582 332.162H219.535C198.89 332.154 178.643 326.595 160.978 316.088L156.777 313.588L113.233 325.038L124.856 282.483L122.12 278.12C110.603 259.759 104.521 238.537 104.53 216.747C104.555 153.164 156.166 101.433 219.626 101.433C250.355 101.445 279.241 113.457 300.963 135.254C322.685 157.051 334.64 186.026 334.629 216.84C334.604 280.429 282.993 332.162 219.582 332.162Z" fill="white"/>
<path fill-rule="evenodd" clip-rule="evenodd" d="M173.195 283.415C174.171 284.004 176.178 284.004 180.78 283.999C200.307 283.982 217.175 283.922 229.173 283.922C285.165 283.922 283.693 224.997 257.513 217.645C261.348 210.854 278.818 198.097 268.013 171.729C257.328 145.655 211.38 151.572 179.954 151.587C168.327 151.588 170.065 160.178 170.125 173.532C170.221 194.684 170.142 251.938 170.128 276.689C170.125 281.706 171.64 282.477 173.195 283.415ZM197.422 261.821C202.709 261.821 215.18 261.821 225.869 261.804C237.975 261.785 248.754 256.125 248.485 244.078C248.287 232.729 240.734 229.005 230.252 227.965C220.268 228.061 208.848 228.061 197.422 228.061V261.821H197.422ZM197.422 205.269C218.483 204.981 226.608 206.118 238.107 203.239C246.008 198.756 249.46 182.128 238.151 176.48C230.296 172.557 207.081 173.899 197.422 174.301V205.27V205.269Z" fill="white"/>
</svg>
